Coordinates
version=1
nRows=6
nColumns=46
inDegrees=yes

Units are S.I. units (second, meters, Newtons, ...)
Angles are in degrees.

endheader
time	pelvis_tilt	pelvis_list	pelvis_rotation	pelvis_tx	pelvis_ty	pelvis_tz	bb_angle	bb_tx	bb_ty	bb_tz	hip_flexion_r	hip_adduction_r	hip_rotation_r	knee_angle_r	knee_angle_r_beta	ankle_angle_r	subtalar_angle_r	mtp_angle_r	crank_angle_r	hip_flexion_l	hip_adduction_l	hip_rotation_l	knee_angle_l	knee_angle_l_beta	ankle_angle_l	subtalar_angle_l	mtp_angle_l	crank_angle_l	lumbar_extension	lumbar_bending	lumbar_rotation	arm_flex_r	arm_add_r	arm_rot_r	elbow_flex_r	pro_sup_r	wrist_flex_r	wrist_dev_r	arm_flex_l	arm_add_l	arm_rot_l	elbow_flex_l	pro_sup_l	wrist_flex_l	wrist_dev_l
      7.50500000	    -32.24305102	     -1.48868740	     -1.18646373	      0.24341568	      1.13934763	     -0.23660220	      0.00000000	      0.50000000	      0.00000000	      0.25000000	     86.90514087	      1.20762307	      3.42567066	    108.76401627	      1.89829019	    -13.84677710	     -9.65324803	      0.00000000	      0.00000000	     44.94007339	     -9.39341624	     -9.85610418	     19.29705686	      0.33679718	    -21.37284339	      5.20315793	      0.00000000	      0.00000000	    -56.73584462	     -5.73795469	     10.99501366	     53.62630695	    -47.08624542	     14.80832381	     99.91160160	     51.51324460	      0.00000000	      0.00000000	     66.68483623	    -10.94128356	     24.43335920	     88.28464139	     51.18358461	      0.00000000	      0.00000000
      7.51000000	    -32.19495268	     -1.83060114	     -1.75373480	      0.24096472	      1.13808421	     -0.23708104	      0.00000000	      0.50000000	      0.00000000	      0.25000000	     88.24555976	      1.62249251	      3.10637465	    109.56437959	      1.91225917	    -12.94331559	     -9.73455348	      0.00000000	      0.00000000	     44.00255226	     -9.91311317	     -9.91552337	     18.56946118	      0.32409824	    -21.57954842	      5.26417254	      0.00000000	      0.00000000	    -56.54141234	     -5.64178012	     11.64707851	     54.03656995	    -47.00626851	     14.88952870	     99.93537300	     51.51735018	      0.00000000	      0.00000000	     66.74865909	    -11.07714481	     24.32047224	     88.22499109	     51.16324927	      0.00000000	      0.00000000
      7.51500000	    -31.95685335	     -2.12998827	     -2.45443735	      0.23885488	      1.13753718	     -0.23745406	      0.00000000	      0.50000000	      0.00000000	      0.25000000	     89.25646753	      2.00289100	      2.76797422	    110.10137334	      1.92163148	    -11.99321265	     -9.02067054	      0.00000000	      0.00000000	     42.78089980	    -10.49528221	    -10.17824352	     17.78215075	      0.31035708	    -22.06637287	      5.33097501	      0.00000000	      0.00000000	    -56.59098552	     -5.72796927	     12.25431367	     54.85265744	    -46.67533612	     15.11511553	     99.81435418	     51.50486397	      0.00000000	      0.00000000	     66.73281136	    -11.00862204	     24.19820685	     87.96707641	     51.11219312	      0.00000000	      0.00000000
      7.52000000	    -31.54717842	     -2.13404481	     -2.98260154	      0.23678347	      1.13725072	     -0.23791092	      0.00000000	      0.50000000	      0.00000000	      0.25000000	     90.03038148	      2.26255894	      2.88439578	    110.64154974	      1.93105933	    -10.42635902	     -7.86132762	      0.00000000	      0.00000000	     41.47048135	    -10.71607929	    -10.56400824	     17.26592399	      0.30134722	    -22.18458730	      5.33150546	      0.00000000	      0.00000000	    -56.84465895	     -5.88576468	     12.39258407	     56.29197042	    -47.40732743	     16.91541925	     99.21451867	     51.55558238	      0.00000000	      0.00000000	     66.88033797	    -10.88507046	     23.87068614	     87.50094803	     51.01102991	      0.00000000	      0.00000000
      7.52500000	    -31.40168300	     -2.42536767	     -3.44025148	      0.23433211	      1.13692436	     -0.23826532	      0.00000000	      0.50000000	      0.00000000	      0.25000000	     90.99677700	      2.50611232	      2.52336340	    110.89057163	      1.93540558	     -9.62988925	     -7.70436674	      0.00000000	      0.00000000	     40.69908887	    -11.15275060	    -10.47182103	     17.14971893	      0.29931906	    -22.19200686	      5.07172873	      0.00000000	      0.00000000	    -56.81745331	     -5.64825492	     11.78165591	     59.32860431	    -46.27447573	     20.32909929	     97.55285060	     51.55196309	      0.00000000	      0.00000000	     66.49066613	    -12.17289416	     23.01056296	     88.15409998	     51.10203393	      0.00000000	      0.00000000
      7.53000000	    -31.20476143	     -2.48799623	     -3.91304430	      0.23207593	      1.13688354	     -0.23827924	      0.00000000	      0.50000000	      0.00000000	      0.25000000	     91.80664890	      2.80522628	      2.46186495	    111.02685282	      1.93778414	     -8.43166112	     -7.10777098	      0.00000000	      0.00000000	     39.93086660	    -11.46271760	    -10.71455022	     17.25609761	      0.30117572	    -22.04511272	      4.94329752	      0.00000000	      0.00000000	    -56.90259156	     -5.83111481	     12.02168468	     59.95393686	    -46.03775200	     20.51465874	     97.33891759	     51.52365468	      0.00000000	      0.00000000	     66.70398105	    -12.13899973	     22.80276604	     87.85790543	     51.03906519	      0.00000000	      0.00000000
